# Blender v2.91.0 OBJ File: ''
# www.blender.org
mtllib startcube.mtl
o Cube
v 1.000000 2.000000 -1.000000
v 1.000000 0.000000 -1.000000
v 1.000000 2.000000 1.000000
v 1.000000 0.000000 1.000000
v -1.000000 2.000000 -1.000000
v -1.000000 0.000000 -1.000000
v -1.000000 2.000000 1.000000
v -1.000000 0.000000 1.000000
vt -0.003755 -0.007051
vt 0.875000 -0.007051
vt 0.875000 0.994987
vt -0.003755 0.994987
vt 0.884979 0.102071
vt 0.861628 1.033345
vt -0.024906 1.011117
vt -0.001556 0.079842
vt 0.935291 0.087526
vt 0.941152 0.898191
vt -0.051717 0.905369
vt -0.057578 0.094704
vt 0.125000 0.744931
vt 0.375000 0.744931
vt 0.375000 0.994931
vt 0.125000 0.994931
vt 0.898153 0.082051
vt 0.911579 0.894318
vt -0.080487 0.910717
vt -0.093914 0.098450
vt 0.760291 0.153557
vt 0.757495 0.843504
vt 0.004214 0.842861
vt 0.007010 0.152915
vn 0.0000 1.0000 0.0000
vn 0.0000 0.0000 1.0000
vn -1.0000 0.0000 0.0000
vn 0.0000 -1.0000 0.0000
vn 1.0000 0.0000 0.0000
vn 0.0000 0.0000 -1.0000
usemtl Material
s off
f 1/1/1 5/2/1 7/3/1 3/4/1
f 4/5/2 3/6/2 7/7/2 8/8/2
f 8/9/3 7/10/3 5/11/3 6/12/3
f 6/13/4 2/14/4 4/15/4 8/16/4
f 2/17/5 1/18/5 3/19/5 4/20/5
f 6/21/6 5/22/6 1/23/6 2/24/6
